<?xml version="1.0" encoding="UTF-8"?>
<svg version="1.1" xmlns="http://www.w3.org/2000/svg" width="600" height="600">
<path d="M0 0 C198 0 396 0 600 0 C600 198 600 396 600 600 C402 600 204 600 0 600 C0 402 0 204 0 0 Z " fill="#2E609D" transform="translate(0,0)"/>
<path d="M0 0 C0.64940026 -0.00265183 1.29880051 -0.00530365 1.96787956 -0.00803584 C4.15899689 -0.01573748 6.35005827 -0.01628834 8.54118824 -0.01688576 C10.12200031 -0.02089981 11.70281134 -0.02533793 13.28362113 -0.03016531 C17.63960178 -0.042143 21.99557135 -0.04778203 26.35156524 -0.05234647 C31.04496831 -0.05829799 35.73835809 -0.06990892 40.4317522 -0.08063698 C51.772124 -0.10517063 63.1125002 -0.1197892 74.45289037 -0.13269705 C77.65495494 -0.13640816 80.85701908 -0.14038146 84.05908322 -0.14444971 C103.9361104 -0.16968453 123.81313825 -0.1917414 143.69017792 -0.20417786 C148.29528461 -0.20710764 152.90039129 -0.21006929 157.50549793 -0.21308327 C158.65009902 -0.21382932 159.7947001 -0.21457537 160.97398607 -0.21534403 C179.52090208 -0.22800096 198.06772231 -0.26122809 216.61459353 -0.3028851 C235.64865666 -0.34528656 254.68267072 -0.36887079 273.71678096 -0.37409842 C284.40683725 -0.37751448 295.09674381 -0.3892927 305.78675365 -0.42220116 C314.88983639 -0.45017818 323.99273871 -0.46121128 333.0958611 -0.4500057 C337.74095344 -0.44481312 342.38566783 -0.44774468 347.03070545 -0.47247124 C351.2841061 -0.49492417 355.53685643 -0.49425492 359.79026816 -0.47526737 C361.32800461 -0.47246179 362.8657848 -0.47809695 364.40345081 -0.4930803 C379.39543291 -0.63021947 379.39543291 -0.63021947 385.6561327 5.13701439 C389.22328537 8.97856342 390.7771373 11.91924973 390.79035378 17.15389347 C390.79481162 17.97353099 390.79926946 18.7931685 390.80386239 19.63764352 C390.80358585 20.98790957 390.80358585 20.98790957 390.80330372 22.36545372 C390.80698041 23.32200727 390.81065709 24.27856083 390.8144452 25.26410085 C390.82549758 28.48370696 390.82932852 31.70328081 390.83313465 34.92290306 C390.83939812 37.22560797 390.84604482 39.52831186 390.85304737 41.83101463 C390.87046777 48.09769969 390.88101198 54.36437711 390.8892529 60.63108039 C390.89440085 64.54502479 390.90047668 68.45896682 390.90676403 72.37290955 C390.92363486 83.21176928 390.93826963 94.05062608 390.94551277 104.8894968 C390.94742263 107.70190177 390.94934297 110.51430672 390.95129871 113.32671165 C390.95178245 114.02571114 390.95226619 114.72471062 390.95276459 115.44489191 C390.96106296 126.76546838 390.98639672 138.08593912 391.01887939 149.40646943 C391.0519654 161.03217465 391.06963027 172.65782071 391.07315701 184.28357297 C391.07550929 190.80972849 391.08449313 197.3357169 391.10961819 203.86182785 C391.13287588 210.00219812 391.1371412 216.14229099 391.1268568 222.28269386 C391.12636078 224.53531313 391.13270076 226.78794594 391.14641285 229.04052353 C391.16410002 232.11856738 391.15704062 235.1956123 391.14387989 238.27365685 C391.16033376 239.60719248 391.16033376 239.60719248 391.17712003 240.96766824 C391.11685331 246.81585519 389.95506021 251.25074568 386.6561327 256.13701439 C382.79260106 259.81208107 379.78136906 261.28660843 374.4686327 261.19951439 C373.2105077 261.17888939 371.9523827 261.15826439 370.6561327 261.13701439 C370.65726063 259.86696556 370.65838856 258.59691673 370.65955067 257.28838158 C370.65584766 252.5242683 370.61276457 247.76114893 370.55847645 242.99736595 C370.54043673 240.94534825 370.53272584 238.89321031 370.53601551 236.84111595 C370.69025845 218.61193061 370.69025845 218.61193061 361.83728504 203.1340847 C355.39839284 196.93021692 348.50402089 195.68934626 339.90051746 195.73296165 C338.94674213 195.7260984 337.9929668 195.71923515 337.01028919 195.71216393 C333.87255228 195.69393456 330.73531721 195.69772796 327.59753895 195.70342064 C325.40710253 195.69885704 323.21666754 195.69355093 321.02623463 195.68753624 C316.44081261 195.67861274 311.85556484 195.68101975 307.27014637 195.69096947 C301.40470053 195.70245878 295.53985675 195.68224389 289.67448997 195.65305233 C285.15248791 195.63467423 280.63062971 195.63498603 276.10859966 195.64068985 C273.94652874 195.64084286 271.78444795 195.63481519 269.62241268 195.62239838 C266.59494236 195.6074599 263.56857902 195.61818691 260.54114246 195.6353054 C259.65517887 195.62563744 258.76921528 195.61596947 257.8564043 195.60600853 C250.96372471 195.68729523 245.78792341 197.5065355 240.4842577 201.96123314 C239.96347645 202.57611595 239.4426952 203.19099876 238.9061327 203.82451439 C238.37503895 204.42650658 237.8439452 205.02849876 237.2967577 205.64873314 C232.58078591 212.80129034 231.05815981 219.14022437 231.0467577 227.64092064 C231.03022144 228.60481209 231.01368519 229.56870354 230.99664783 230.56180382 C230.94848287 233.60777419 230.92686709 236.65324649 230.9061327 239.69951439 C230.87794667 241.77831507 230.8480156 243.85709286 230.81628895 245.93584251 C230.74273245 251.00285874 230.69296581 256.06960356 230.6561327 261.13701439 C200.45552594 261.22827869 170.25492391 261.29906027 140.05420968 261.34127571 C136.48816751 261.34627849 132.92212562 261.35145578 129.35608387 261.35674095 C128.64615373 261.35779019 127.93622358 261.35883943 127.20478041 261.35992047 C115.7119828 261.37732235 104.21926528 261.40885882 92.72651517 261.44562557 C80.93254694 261.48304108 69.13862064 261.50525152 57.34459549 261.51336837 C50.72061978 261.51836277 44.09679308 261.5308647 37.47287273 261.55993462 C31.2389908 261.58707131 25.00536541 261.59546276 18.77143002 261.58944511 C16.48291219 261.59054612 14.19438584 261.59851013 11.90591908 261.61383629 C8.78140217 261.63373628 5.65785401 261.6289529 2.5333147 261.61803246 C1.6276589 261.62968382 0.7220031 261.64133519 -0.21109682 261.65333962 C-6.09222395 261.59777706 -9.66781507 260.82381475 -14.3438673 257.13701439 C-18.57927177 251.61075607 -18.91875043 245.92253921 -18.85180187 239.17995262 C-18.85804183 238.20546516 -18.8642818 237.23097769 -18.87071085 236.2269603 C-18.88660756 232.97651403 -18.87404933 229.72682109 -18.86144543 226.47636986 C-18.86686793 224.14012275 -18.8739913 221.80387906 -18.88268566 219.46764183 C-18.90090446 213.13311852 -18.89385777 206.7988561 -18.88116932 200.46432829 C-18.87206409 194.50633573 -18.87901691 188.54837529 -18.8848781 182.59038188 C-18.896272 170.0735854 -18.88318801 157.5569063 -18.86167663 145.04012908 C-18.84379834 134.30495012 -18.846918 123.56994415 -18.86535168 112.8347683 C-18.8867651 100.35849191 -18.89518225 87.8823182 -18.88290262 75.40602601 C-18.87666499 68.8051425 -18.87583985 62.20437813 -18.88904858 55.60350227 C-18.90059577 49.39983303 -18.89260155 43.19649086 -18.86947155 36.99285698 C-18.86417894 34.71521994 -18.86570761 32.43755541 -18.87452221 30.15992928 C-18.88543875 27.05294985 -18.87176035 23.94702119 -18.85180187 20.84010887 C-18.86072476 19.93699718 -18.86964765 19.0338855 -18.87884092 18.10340679 C-18.81041603 12.61903956 -17.99364276 9.48930048 -14.3438673 5.13701439 C-9.56828553 0.82734304 -6.34339971 0.01273375 0 0 Z " fill="#FBFCFC" transform="translate(115.34386730194092,83.86298561096191)"/>
<path d="M0 0 C1.30074211 -0.01248528 1.30074211 -0.01248528 2.62776184 -0.02522278 C5.49431857 -0.04931655 8.36064767 -0.05809444 11.22729492 -0.06469727 C13.22263151 -0.07366456 15.21796741 -0.08278643 17.21330261 -0.09205627 C21.39710117 -0.10854748 25.5808197 -0.11624654 29.76464844 -0.11914062 C35.11807648 -0.12452238 40.47074924 -0.16219356 45.82396412 -0.20788479 C49.94616929 -0.23767157 54.06819301 -0.24486455 58.19049644 -0.24586678 C60.16362655 -0.25006638 62.13675732 -0.26249023 64.10978127 -0.28338432 C66.87452856 -0.31033024 69.63753089 -0.30546376 72.40234375 -0.29296875 C73.21245911 -0.30780304 74.02257446 -0.32263733 74.85723877 -0.33792114 C79.85000399 -0.27387364 82.88778311 0.74329064 86.88720226 3.74543667 C91.10443344 8.11059605 91.77181449 11.67382259 91.78294373 17.66282654 C91.78832926 18.39382114 91.7937148 19.12481574 91.79926354 19.8779617 C91.81354724 22.32229649 91.80643858 24.76609005 91.79931641 27.21044922 C91.80501977 28.96498042 91.8119839 30.71950791 91.82011414 32.47402954 C91.83806442 37.2364346 91.83687364 41.99865559 91.83117175 46.76108432 C91.8280826 50.73730837 91.83416931 54.71349692 91.8402105 58.68971592 C91.85426026 68.07019218 91.85269068 77.45057737 91.84130859 86.83105469 C91.82982664 96.50765842 91.84390333 106.18398503 91.87070507 115.86055225 C91.89285785 124.16982743 91.8995004 132.4790156 91.89362866 140.78831822 C91.8902569 145.75053706 91.89268869 150.71257825 91.90987968 155.67477226 C91.92534 160.34111015 91.92140345 165.00703731 91.90257454 169.67335892 C91.89888613 171.38499053 91.90200449 173.0966525 91.91246033 174.80825615 C91.92565528 177.14697207 91.9141375 179.48432529 91.89646912 181.82298279 C91.89615519 183.78495684 91.89615519 183.78495684 91.89583492 185.78656673 C91.17004658 190.89003882 88.42792315 195.0802689 84.39526367 198.30639648 C80.02234135 200.53628195 75.86540993 200.60866434 71.06005859 200.61279297 C69.82002831 200.62527824 69.82002831 200.62527824 68.5549469 200.63801575 C65.82849381 200.66206367 63.10228024 200.67088167 60.37573242 200.67749023 C58.47390168 200.68646085 56.57207164 200.69558278 54.67024231 200.70484924 C50.68492927 200.72132787 46.69970013 200.72903725 42.71435547 200.73193359 C37.61998992 200.73731479 32.52641827 200.77498885 27.43227673 200.82067776 C23.50390275 200.85049351 19.57571886 200.85765814 15.64724159 200.85865974 C13.76983315 200.86285342 11.8924237 200.87525336 10.01512718 200.89617729 C7.38238354 200.92318467 4.75146607 200.91823906 2.11865234 200.90576172 C0.96733322 200.92801315 0.96733322 200.92801315 -0.20724487 200.95071411 C-5.91466299 200.87410421 -10.42867865 199.30559004 -14.60473633 195.30639648 C-18.07493649 190.24561774 -19.10645394 186.96733463 -19.12612915 180.71618652 C-19.13378024 179.98418864 -19.14143134 179.25219075 -19.14931428 178.49801111 C-19.16983871 176.06209672 -19.1620173 173.62713718 -19.15405273 171.19116211 C-19.16275321 169.43795403 -19.1731216 167.68475356 -19.18502808 165.93156433 C-19.21176092 161.18157428 -19.21297106 156.43190294 -19.20790148 151.68185234 C-19.2057593 147.71306573 -19.21553556 143.74434324 -19.22511232 139.77557039 C-19.24728532 130.41226162 -19.24818657 121.04911333 -19.23608398 111.68579102 C-19.22399748 102.0317642 -19.24864727 92.37831986 -19.29122412 82.72439241 C-19.32646335 74.42863137 -19.33845797 66.1330557 -19.33194864 57.83722258 C-19.32832444 52.88552725 -19.33357991 47.93424767 -19.36137772 42.98262024 C-19.38653866 38.32675779 -19.38264443 33.67180355 -19.35655594 29.01595497 C-19.35182636 27.30957545 -19.35728728 25.60313195 -19.37380219 23.89682579 C-19.50392741 9.40522285 -19.50392741 9.40522285 -15.80819702 4.86169434 C-11.00598829 0.36171287 -6.37727443 0.00519341 0 0 Z " fill="#F7F9FA" transform="translate(379.604736328125,292.693603515625)"/>
<path d="M0 0 C27.06 0 54.12 0 82 0 C82 43.23 82 86.46 82 131 C54.94 131 27.88 131 0 131 C0 87.77 0 44.54 0 0 Z " fill="#FCFDFD" transform="translate(375,323)"/>
<path d="M0 0 C3.39747591 1.0186101 4.88496182 2.90288832 7.09765625 5.62890625 C7.53714492 8.48492101 7.68785612 10.71944082 7.5859375 13.5546875 C7.57886276 14.30227829 7.57178802 15.04986908 7.5644989 15.82011414 C7.5366327 18.19492027 7.47391757 20.56731976 7.41015625 22.94140625 C7.38506293 24.55660643 7.36225156 26.17184379 7.34179688 27.78710938 C7.28683272 31.73529444 7.20062152 35.68169314 7.09765625 39.62890625 C8.64090576 39.59748535 8.64090576 39.59748535 10.21533203 39.56542969 C14.05063838 39.49275631 17.88588447 39.44700804 21.72167969 39.40917969 C23.3783595 39.38912616 25.03496907 39.36187596 26.69140625 39.32714844 C29.07960383 39.27835113 31.46686172 39.25587561 33.85546875 39.23828125 C34.95739059 39.20731354 34.95739059 39.20731354 36.08157349 39.17572021 C41.23695231 39.17349599 44.13841373 40.36406797 48.09765625 43.62890625 C49.54913528 46.5318643 49.4700465 48.40152404 49.09765625 51.62890625 C45.59374963 57.21259821 45.59374963 57.21259821 42.21591187 58.15252686 C39.95926263 58.32324311 37.77695991 58.30421998 35.515625 58.21484375 C34.70144608 58.20635406 33.88726715 58.19786438 33.04841614 58.18911743 C30.459291 58.15564801 27.87333244 58.08038985 25.28515625 58.00390625 C23.52543575 57.97379789 21.76566621 57.94642359 20.00585938 57.921875 C15.70191321 57.85587904 11.4003207 57.75240954 7.09765625 57.62890625 C7.11431084 59.32233406 7.11431084 59.32233406 7.13130188 61.04997253 C7.23265032 71.68809838 7.30760854 82.32612631 7.35671711 92.96462536 C7.38281322 98.4340597 7.41821213 103.90310438 7.47485352 109.37231445 C7.52917188 114.65023441 7.55907668 119.92777952 7.57204247 125.20595741 C7.5812826 127.21984064 7.59932655 129.2337033 7.62630653 131.24742699 C7.66259438 134.06799049 7.6676017 136.88700438 7.6652832 139.70776367 C7.68325958 140.5407045 7.70123596 141.37364532 7.71975708 142.23182678 C7.68181675 146.49632015 7.46282466 148.1517008 4.78483582 151.65132141 C2.09765625 153.62890625 2.09765625 153.62890625 -1.46484375 154.19140625 C-5.38336086 153.55019436 -6.52792601 152.73391406 -8.90234375 149.62890625 C-10.53904134 146.35551108 -10.03136651 142.73669818 -10.01586914 139.14013672 C-10.01601517 138.26202332 -10.01616119 137.38390991 -10.01631165 136.47918701 C-10.01561333 133.56813105 -10.0078247 130.65713857 -10 127.74609375 C-9.99813553 125.73113032 -9.99671177 123.71616644 -9.99571228 121.70120239 C-9.99188937 116.39112095 -9.98206099 111.08106675 -9.9710083 105.77099609 C-9.96078934 100.35514698 -9.95621362 94.93929347 -9.95117188 89.5234375 C-9.94043854 78.8919151 -9.92336481 68.26041294 -9.90234375 57.62890625 C-10.96670654 57.65509033 -12.03106934 57.68127441 -13.12768555 57.70825195 C-17.08775702 57.79895401 -21.04773726 57.85622714 -25.00854492 57.90356445 C-26.7206162 57.92866339 -28.43258079 57.96275054 -30.14428711 58.00610352 C-32.6094802 58.06696364 -35.0732536 58.09516057 -37.5390625 58.1171875 C-38.68153694 58.15589714 -38.68153694 58.15589714 -39.84709167 58.19538879 C-43.8445154 58.19748445 -45.6727668 57.80843091 -48.85864258 55.31713867 C-51.42907423 51.93605841 -51.97804029 49.86791231 -51.90234375 45.62890625 C-50.44238281 42.94067383 -50.44238281 42.94067383 -47.90234375 40.62890625 C-44.80876143 40.18349017 -42.2804203 40.04252621 -39.19921875 40.140625 C-38.36142883 40.14769974 -37.52363892 40.15477448 -36.66046143 40.1620636 C-33.99017228 40.19000559 -31.32199667 40.25274012 -28.65234375 40.31640625 C-26.83987408 40.34148954 -25.02737147 40.36430266 -23.21484375 40.38476562 C-18.77653204 40.43983121 -14.33979594 40.52609958 -9.90234375 40.62890625 C-9.92329102 39.55930664 -9.94423828 38.48970703 -9.96582031 37.38769531 C-10.03829001 33.41452452 -10.08416838 29.441412 -10.12207031 25.46777344 C-10.14217003 23.74892346 -10.16945464 22.03014173 -10.20410156 20.31152344 C-10.25269409 17.83902136 -10.2753281 15.36742415 -10.29296875 12.89453125 C-10.31361389 12.12772034 -10.33425903 11.36090942 -10.35552979 10.57086182 C-10.35699575 7.07511764 -10.18630144 5.02513716 -8.12402344 2.14746094 C-5.45596556 0.3237994 -3.19994941 0.10814938 0 0 Z " fill="#315E99" transform="translate(300.90234375,133.37109375)"/>
<path d="M0 0 C1.15249741 0.00222061 2.30499481 0.00444122 3.49241638 0.00672913 C5.4443264 0.00684242 5.4443264 0.00684242 7.43566895 0.00695801 C8.86661313 0.01206543 10.29755694 0.01728144 11.72850037 0.02259827 C13.18438672 0.02446249 14.64027369 0.02588637 16.09616089 0.02688599 C19.93488791 0.03071086 23.77357731 0.04054088 27.61228943 0.05158997 C31.52667227 0.06180474 35.44106117 0.06638375 39.35545349 0.07142639 C47.04101953 0.08216318 54.72654677 0.09975972 62.41209412 0.12025452 C63.40209412 9.52525452 63.40209412 9.52525452 64.41209412 19.12025452 C68.04209412 19.12025452 71.67209412 19.12025452 75.41209412 19.12025452 C75.41209412 25.06025452 75.41209412 31.00025452 75.41209412 37.12025452 C61.67785481 37.23605312 47.94373145 37.32492203 34.20910358 37.37931538 C27.83168622 37.40542019 21.45460259 37.44083561 15.07737732 37.49745178 C8.92414248 37.55173816 2.77122886 37.58166838 -3.38222694 37.59464073 C-5.73103201 37.60388653 -8.07981929 37.62194129 -10.42848778 37.6489048 C-13.71598311 37.68514879 -17.00214753 37.6902016 -20.28981018 37.68788147 C-21.74961304 37.71484604 -21.74961304 37.71484604 -23.23890686 37.74235535 C-27.89059754 37.7067818 -29.91209458 37.64453591 -33.69003296 34.71368408 C-35.51976908 32.21336296 -36.27413085 31.15701299 -36.21290588 28.12025452 C-36.22579651 27.48087952 -36.23868713 26.84150452 -36.25196838 26.18275452 C-35.07603278 22.53043687 -33.7834982 21.32267342 -30.58790588 19.12025452 C-26.13646714 18.4997093 -21.75863906 18.65099811 -17.27540588 18.80775452 C-16.05788635 18.83031311 -14.84036682 18.8528717 -13.58595276 18.87611389 C-10.58535106 18.93494922 -7.58725792 19.01711311 -4.58790588 19.12025452 C-4.52731995 17.83248108 -4.46673401 16.54470764 -4.40431213 15.21791077 C-4.31992342 13.53951293 -4.23527459 11.86112815 -4.15040588 10.18275452 C-4.11108948 9.3326178 -4.07177307 8.48248108 -4.03126526 7.60658264 C-3.98937073 6.79769592 -3.9474762 5.9888092 -3.90431213 5.15541077 C-3.86765442 4.40654602 -3.8309967 3.65768127 -3.79322815 2.88612366 C-3.45857396 0.00793842 -2.92563357 0.13594801 0 0 Z " fill="#F9FAFB" transform="translate(270.58790588378906,351.87974548339844)"/>
<path d="M0 0 C31.02 0 62.04 0 94 0 C94 46.86 94 93.72 94 142 C62.98 142 31.96 142 0 142 C0 95.14 0 48.28 0 0 Z M6 6 C6 49.23 6 92.46 6 137 C33.06 137 60.12 137 88 137 C88 93.77 88 50.54 88 6 C60.94 6 33.88 6 6 6 Z " fill="#3968A0" transform="translate(369,317)"/>
<path d="M0 0 C4.57238947 1.1624719 6.34267202 2.67231078 9.6875 5.9375 C11.45847673 9.47945346 10.71600671 13.20916319 9.6875 16.9375 C7.23722455 19.86587797 5.48829122 21.50430768 1.72265625 22.41015625 C-2.23222697 22.70620317 -4.65088332 22.05962999 -7.75 19.5625 C-10.70340674 16.53705895 -11.20868218 15.83725442 -11.6875 11.6875 C-11.19044743 6.71697435 -9.80089777 5.42589777 -6.3125 1.9375 C-3.3125 -0.0625 -3.3125 -0.0625 0 0 Z " fill="#34659E" transform="translate(416.3125,464.0625)"/>
<path d="M0 0 C4.68139254 -0.02465288 9.36274759 -0.04283739 14.04418945 -0.05493164 C15.63794614 -0.05997157 17.23169819 -0.0668035 18.82543945 -0.07543945 C21.11150253 -0.08751999 23.39750467 -0.09323155 25.68359375 -0.09765625 C26.40026718 -0.10281754 27.11694061 -0.10797882 27.85533142 -0.11329651 C29.57063672 -0.11349263 31.28581266 -0.06192007 33 0 C34 1 34 1 34 6 C22.78 6 11.56 6 0 6 C-1 2 -1 2 0 0 Z " fill="#4371A8" transform="translate(399,303)"/>
<path d="M0 0 C6.59574468 1.59574468 6.59574468 1.59574468 8 3 C8.25 6.4375 8.25 6.4375 8 10 C4.43046261 12.37969159 3.18091485 12.16603324 -1 11.8125 C-2.051875 11.73644531 -3.10375 11.66039062 -4.1875 11.58203125 C-7.19712492 10.95920609 -8.23365987 10.46927141 -10 8 C-10.42317323 5.17884512 -10.38718434 3.66049093 -8.9375 1.1875 C-5.90475422 -0.67127967 -3.49698374 -0.29141531 0 0 Z " fill="#F0F3F6" transform="translate(242,480)"/>
<path d="M0 0 C4.37587099 0.48620789 9.17317901 2.17317901 12.375 5.375 C12.82878151 10.59348739 12.82878151 10.59348739 11.25 13.3125 C9.375 14.375 9.375 14.375 6.6875 14.375 C2.40340394 13.08168798 -1.31948701 11.45141803 -4.625 8.375 C-5.25 5.1875 -5.25 5.1875 -4.625 2.375 C-2.625 0.375 -2.625 0.375 0 0 Z " fill="#F0F3F6" transform="translate(188.625,465.625)"/>
<path d="M0 0 C2 1.1875 2 1.1875 3 3 C3 5.5 3 5.5 2 8 C-0.25 9.6875 -0.25 9.6875 -3 11 C-3.825 11.4125 -4.65 11.825 -5.5 12.25 C-8.45261155 13.13578347 -10.08680336 12.94482053 -13 12 C-15 10 -15 10 -15.25 7 C-15 4 -15 4 -13 2 C-8.56538676 0.14365027 -4.79537694 -0.45239405 0 0 Z " fill="#F4F6F8" transform="translate(323,473)"/>
<path d="M0 0 C4.01187265 4.33715962 4.90615213 8.27527973 5 14 C3.52878067 16.61550103 2.4761262 16.862174 -0.375 17.6875 C-3.56496633 16.85203263 -3.97027026 16.06516952 -5.75 13.375 C-7.66708081 9.94730805 -9 7.00082749 -9 3 C-6.90078294 -0.7045007 -3.94514513 -0.72461849 0 0 Z " fill="#F4F6F7" transform="translate(158,432)"/>
<path d="M0 0 C1.46569823 2.50030874 1.56102135 3.96380656 1.0625 6.8125 C-1.93990805 9.67526116 -4.42112224 10.32123343 -8.5 10.6875 C-9.92505859 10.83832031 -9.92505859 10.83832031 -11.37890625 10.9921875 C-13.9375 10.8125 -13.9375 10.8125 -15.75390625 9.4765625 C-17.43058301 7.11925457 -17.3615208 5.63930531 -16.9375 2.8125 C-15.39809777 0.54390724 -14.30657708 -0.07472645 -11.6875 -0.875 C-3.03235368 -1.85853935 -3.03235368 -1.85853935 0 0 Z " fill="#EFF2F5" transform="translate(299.9375,480.1875)"/>
<path d="M0 0 C1.9375 1.125 1.9375 1.125 3 3 C3.1875 5.875 3.1875 5.875 2 9 C-1.44212027 12.13216631 -4.76210603 13.83953226 -9.375 14.4375 C-12 14 -12 14 -14 12 C-14.4375 9.125 -14.4375 9.125 -14 6 C-11.6875 3.75 -11.6875 3.75 -9 2 C-5.53076119 -0.31282587 -4.07794425 -0.42478586 0 0 Z " fill="#F3F6F8" transform="translate(192,372)"/>
<path d="M0 0 C9.61340195 0.68116351 9.61340195 0.68116351 13.671875 5.01953125 C12.921875 9.76953125 12.921875 9.76953125 10.671875 12.01953125 C8.2109375 12.1015625 8.2109375 12.1015625 5.296875 11.83203125 C4.34039062 11.75597656 3.38390625 11.67992187 2.3984375 11.6015625 C-0.56269139 10.96945905 -2.07612232 9.99937247 -4.328125 8.01953125 C-3.31099261 0.02777678 -3.31099261 0.02777678 0 0 Z " fill="#F6F8FA" transform="translate(212.328125,474.98046875)"/>
<path d="M0 0 C4.47929554 0.6515339 6.66505602 2.43750465 9.93359375 5.4765625 C11.4375 7.5 11.4375 7.5 11.4375 11.4375 C11.1075 12.448125 10.7775 13.45875 10.4375 14.5 C7.72636522 15.34722962 6.20589413 15.78407029 3.4375 15.5 C0.12455714 13.69036169 -2.36104604 11.57152463 -4.5625 8.5 C-4.625 4.625 -4.625 4.625 -3.5625 1.5 C-2.5625 0.5 -2.5625 0.5 0 0 Z " fill="#F8FAFA" transform="translate(167.5625,451.5)"/>
<path d="M0 0 C2 2 2 2 2.375 4.9375 C2 8 2 8 0.3125 9.75 C-5.01241129 12.62833043 -7.90731899 13.19464333 -14 12 C-14.33 9.69 -14.66 7.38 -15 5 C-10.25397124 1.13286546 -6.19024764 -0.55024423 0 0 Z " fill="#F5F7F9" transform="translate(215,362)"/>
<path d="M0 0 C3.125 1 3.125 1 4.125 2 C4.6875 4.5625 4.6875 4.5625 4.125 8 C1.84103142 11.13768499 -0.60295452 13.89287123 -3.875 16 C-7.26674705 15.80461132 -8.45439566 15.42060434 -10.875 13 C-11.4375 10.3125 -11.4375 10.3125 -10.875 7 C-7.89291184 2.51804501 -5.51005528 0 0 0 Z " fill="#F6F8FA" transform="translate(169.875,387)"/>
<path d="M0 0 C1.73056641 -0.02513672 1.73056641 -0.02513672 3.49609375 -0.05078125 C6.5625 0.3125 6.5625 0.3125 8.48828125 1.63671875 C9.5625 3.3125 9.5625 3.3125 9.3125 6.4375 C8.5625 9.3125 8.5625 9.3125 7.5625 10.3125 C5.25256618 10.43807162 2.93831464 10.48825729 0.625 10.5 C-0.64214844 10.51417969 -1.90929687 10.52835937 -3.21484375 10.54296875 C-6.4375 10.3125 -6.4375 10.3125 -8.4375 8.3125 C-8.6875 5.3125 -8.6875 5.3125 -8.4375 2.3125 C-5.65940605 -0.46559395 -3.86994797 0.01294297 0 0 Z " fill="#FAFBFB" transform="translate(266.4375,481.6875)"/>
<path d="M0 0 C2 3 2 3 1.9375 5.4375 C0.34850107 9.78076374 -3.2755371 11.51702474 -7 14 C-9.5625 14.25 -9.5625 14.25 -12 14 C-14 12 -14 12 -14.6875 8.75 C-13.89122404 4.40667658 -13.27410987 3.96107812 -9.8125 1.5 C-6.195969 -0.85104503 -4.12981082 -1.49922544 0 0 Z " fill="#F2F5F8" transform="translate(346,462)"/>
<path d="M0 0 C2 2 2 2 2.08203125 4.71484375 C1.99308594 5.77832031 1.90414062 6.84179688 1.8125 7.9375 C1.73644531 8.99839844 1.66039062 10.05929687 1.58203125 11.15234375 C0.96209378 14.18546062 0.48905376 15.22556508 -2 17 C-4.82463156 17.42369473 -6.30613846 17.49189245 -8.6640625 15.8203125 C-10.54806796 13.25321734 -10.20259628 11.62476448 -9.875 8.5 C-9.78992188 7.5409375 -9.70484375 6.581875 -9.6171875 5.59375 C-8.29707968 0.04595513 -5.35584397 -0.56977064 0 0 Z " fill="#F7F9FA" transform="translate(158,408)"/>
</svg>
